<svg xmlns="http://www.w3.org/2000/svg" viewBox="0 0 48 48" xmlns:xlink="http://www.w3.org/1999/xlink" xml:space="preserve" width="100%" height="100%"><path xmlns="http://www.w3.org/2000/svg" d="m9.6 5.193 14.4 14.4L38.4 5.236a2.92 2.92 0 0 1 2.182-.872 3.27 3.27 0 0 1 3.054 3.054 2.88 2.88 0 0 1-.872 2.095L28.32 24l14.444 14.487c.567.55.881 1.31.872 2.095a3.27 3.27 0 0 1-3.054 3.054 2.92 2.92 0 0 1-2.182-.872L24 28.407 9.644 42.764a2.92 2.92 0 0 1-2.182.872 3.273 3.273 0 0 1-3.098-3.098 2.88 2.88 0 0 1 .872-2.094L19.68 24 5.193 9.513a2.88 2.88 0 0 1-.83-2.095 3.27 3.27 0 0 1 3.055-3.054 2.92 2.92 0 0 1 2.182.829"></path></svg>